HIERARCHY
ROOT Hips
{
	OFFSET 0.000000 100.481300 0.000000
	CHANNELS 6 Xposition Yposition Zposition Xrotation Yrotation Zrotation
	JOINT Spine
	{
		OFFSET -0.279200 12.230698 -2.892100
		CHANNELS 3 Xrotation Yrotation Zrotation
		JOINT Spine1
		{
			OFFSET -0.325700 14.269203 -3.374200
			CHANNELS 3 Xrotation Yrotation Zrotation
			JOINT Spine2
			{
				OFFSET -0.372300 16.307602 -0.352600
				CHANNELS 3 Xrotation Yrotation Zrotation
				JOINT Neck
				{
					OFFSET -0.418800 17.814194 8.416900
					CHANNELS 3 Xrotation Yrotation Zrotation
					JOINT Head
					{
						OFFSET 0.000000 7.031097 3.806800
						CHANNELS 3 Xrotation Yrotation Zrotation
						JOINT HeadTop_End
						{
							OFFSET 0.000000 24.646606 12.978600
							CHANNELS 3 Xrotation Yrotation Zrotation
							End Site
							{
								OFFSET 0.000000 27.854965 0.000000
							}
						}
					}
				}
				JOINT LeftShoulder
				{
					OFFSET 16.952999 14.495407 -7.737500
					CHANNELS 3 Xrotation Yrotation Zrotation
					JOINT LeftArm
					{
						OFFSET 9.308998 -2.777710 0.208600
						CHANNELS 3 Xrotation Yrotation Zrotation
						JOINT LeftForeArm
						{
							OFFSET 29.972298 0.000000 0.000000
							CHANNELS 3 Xrotation Yrotation Zrotation
							JOINT LeftHand
							{
								OFFSET 26.026505 0.000000 0.000000
								CHANNELS 3 Xrotation Yrotation Zrotation
								JOINT LeftHandThumb1
								{
									OFFSET 12.240501 -7.147949 9.207150
									CHANNELS 3 Xrotation Yrotation Zrotation
									JOINT LeftHandThumb2
									{
										OFFSET 4.138618 -2.389435 2.389433
										CHANNELS 3 Xrotation Yrotation Zrotation
										JOINT LeftHandThumb3
										{
											OFFSET 2.726913 -1.574387 1.574386
											CHANNELS 3 Xrotation Yrotation Zrotation
											JOINT LeftHandThumb4
											{
												OFFSET 3.941010 -2.275345 2.275342
												CHANNELS 3 Xrotation Yrotation Zrotation
												End Site
												{
													OFFSET -0.005798 5.087799 0.009903
												}
											}
										}
									}
								}
								JOINT LeftHandIndex1
								{
									OFFSET 24.424698 -1.985611 5.953459
									CHANNELS 3 Xrotation Yrotation Zrotation
									JOINT LeftHandIndex2
									{
										OFFSET 6.426697 0.000000 0.000000
										CHANNELS 3 Xrotation Yrotation Zrotation
										JOINT LeftHandIndex3
										{
											OFFSET 5.337898 0.000000 0.000000
											CHANNELS 3 Xrotation Yrotation Zrotation
											JOINT LeftHandIndex4
											{
												OFFSET 4.409401 0.000000 0.000000
												CHANNELS 3 Xrotation Yrotation Zrotation
												End Site
												{
													OFFSET 0.000000 4.409363 0.014373
												}
											}
										}
									}
								}
								JOINT LeftHandMiddle1
								{
									OFFSET 23.810104 0.000000 0.000000
									CHANNELS 3 Xrotation Yrotation Zrotation
									JOINT LeftHandMiddle2
									{
										OFFSET 7.176498 0.000000 0.000000
										CHANNELS 3 Xrotation Yrotation Zrotation
										JOINT LeftHandMiddle3
										{
											OFFSET 6.774902 0.000000 0.000000
											CHANNELS 3 Xrotation Yrotation Zrotation
											JOINT LeftHandMiddle4
											{
												OFFSET 5.403328 0.000000 0.000000
												CHANNELS 3 Xrotation Yrotation Zrotation
												End Site
												{
													OFFSET -0.027702 5.403244 0.017414
												}
											}
										}
									}
								}
								JOINT LeftHandRing1
								{
									OFFSET 22.908401 -0.839279 -6.020567
									CHANNELS 3 Xrotation Yrotation Zrotation
									JOINT LeftHandRing2
									{
										OFFSET 6.337502 0.000000 0.000000
										CHANNELS 3 Xrotation Yrotation Zrotation
										JOINT LeftHandRing3
										{
											OFFSET 5.779297 0.000000 0.000000
											CHANNELS 3 Xrotation Yrotation Zrotation
											JOINT LeftHandRing4
											{
												OFFSET 4.965698 0.000000 0.000000
												CHANNELS 3 Xrotation Yrotation Zrotation
												End Site
												{
													OFFSET 0.000000 4.965668 0.016186
												}
											}
										}
									}
								}
								JOINT LeftHandPinky1
								{
									OFFSET 20.037003 -1.530319 -10.950146
									CHANNELS 3 Xrotation Yrotation Zrotation
									JOINT LeftHandPinky2
									{
										OFFSET 5.254700 0.000000 0.000000
										CHANNELS 3 Xrotation Yrotation Zrotation
										JOINT LeftHandPinky3
										{
											OFFSET 4.810204 0.000000 0.000000
											CHANNELS 3 Xrotation Yrotation Zrotation
											JOINT LeftHandPinky4
											{
												OFFSET 3.647202 0.000000 0.000000
												CHANNELS 3 Xrotation Yrotation Zrotation
												End Site
												{
													OFFSET 0.000000 3.647186 0.011889
												}
											}
										}
									}
								}
							}
						}
					}
				}
				JOINT RightShoulder
				{
					OFFSET -15.141001 14.495407 -7.737500
					CHANNELS 3 Xrotation Yrotation Zrotation
					JOINT RightArm
					{
						OFFSET -9.308998 -2.777710 0.208500
						CHANNELS 3 Xrotation Yrotation Zrotation
						JOINT RightForeArm
						{
							OFFSET -29.972300 0.000000 0.000000
							CHANNELS 3 Xrotation Yrotation Zrotation
							JOINT RightHand
							{
								OFFSET -26.026505 0.000000 0.000000
								CHANNELS 3 Xrotation Yrotation Zrotation
								JOINT RightHandThumb1
								{
									OFFSET -12.240601 -7.148026 9.207092
									CHANNELS 3 Xrotation Yrotation Zrotation
									JOINT RightHandThumb2
									{
										OFFSET -4.138618 -2.389435 2.389433
										CHANNELS 3 Xrotation Yrotation Zrotation
										JOINT RightHandThumb3
										{
											OFFSET -2.726974 -1.574417 1.574421
											CHANNELS 3 Xrotation Yrotation Zrotation
											JOINT RightHandThumb4
											{
												OFFSET -3.941010 -2.275345 2.275343
												CHANNELS 3 Xrotation Yrotation Zrotation
												End Site
												{
													OFFSET 0.005814 5.087799 0.009927
												}
											}
										}
									}
								}
								JOINT RightHandIndex1
								{
									OFFSET -24.424698 -1.985657 5.953444
									CHANNELS 3 Xrotation Yrotation Zrotation
									JOINT RightHandIndex2
									{
										OFFSET -6.426697 0.000000 0.000000
										CHANNELS 3 Xrotation Yrotation Zrotation
										JOINT RightHandIndex3
										{
											OFFSET -5.337898 0.000000 0.000000
											CHANNELS 3 Xrotation Yrotation Zrotation
											JOINT RightHandIndex4
											{
												OFFSET -4.409401 0.000000 0.000000
												CHANNELS 3 Xrotation Yrotation Zrotation
												End Site
												{
													OFFSET 0.000000 4.409363 0.014408
												}
											}
										}
									}
								}
								JOINT RightHandMiddle1
								{
									OFFSET -23.810097 0.000000 0.000000
									CHANNELS 3 Xrotation Yrotation Zrotation
									JOINT RightHandMiddle2
									{
										OFFSET -7.176498 0.000000 0.000000
										CHANNELS 3 Xrotation Yrotation Zrotation
										JOINT RightHandMiddle3
										{
											OFFSET -6.774902 0.000000 0.000000
											CHANNELS 3 Xrotation Yrotation Zrotation
											JOINT RightHandMiddle4
											{
												OFFSET -5.403328 0.000000 0.000000
												CHANNELS 3 Xrotation Yrotation Zrotation
												End Site
												{
													OFFSET 0.027702 5.403244 0.017457
												}
											}
										}
									}
								}
								JOINT RightHandRing1
								{
									OFFSET -22.908302 -0.839325 -6.020576
									CHANNELS 3 Xrotation Yrotation Zrotation
									JOINT RightHandRing2
									{
										OFFSET -6.337502 0.000000 0.000000
										CHANNELS 3 Xrotation Yrotation Zrotation
										JOINT RightHandRing3
										{
											OFFSET -5.779297 0.000000 0.000000
											CHANNELS 3 Xrotation Yrotation Zrotation
											JOINT RightHandRing4
											{
												OFFSET -4.965698 0.000000 0.000000
												CHANNELS 3 Xrotation Yrotation Zrotation
												End Site
												{
													OFFSET 0.000000 4.965668 0.016226
												}
											}
										}
									}
								}
								JOINT RightHandPinky1
								{
									OFFSET -20.037003 -1.530334 -10.950259
									CHANNELS 3 Xrotation Yrotation Zrotation
									JOINT RightHandPinky2
									{
										OFFSET -5.254700 0.000000 0.000000
										CHANNELS 3 Xrotation Yrotation Zrotation
										JOINT RightHandPinky3
										{
											OFFSET -4.810204 0.000000 0.000000
											CHANNELS 3 Xrotation Yrotation Zrotation
											JOINT RightHandPinky4
											{
												OFFSET -3.647202 0.000000 0.000000
												CHANNELS 3 Xrotation Yrotation Zrotation
												End Site
												{
													OFFSET 0.000000 3.647186 0.011917
												}
											}
										}
									}
								}
							}
						}
					}
				}
			}
		}
	}
	JOINT LeftUpLeg
	{
		OFFSET 15.427100 -6.655098 0.678600
		CHANNELS 3 Xrotation Yrotation Zrotation
		JOINT LeftLeg
		{
			OFFSET 4.081073 -39.591068 13.024000
			CHANNELS 3 Xrotation Yrotation Zrotation
			JOINT LeftFoot
			{
				OFFSET -4.081074 -37.707932 -15.979700
				CHANNELS 3 Xrotation Yrotation Zrotation
				JOINT LeftToeBase
				{
					OFFSET 5.346399 -15.068900 20.645000
					CHANNELS 3 Xrotation Yrotation Zrotation
					JOINT LeftToe_End
					{
						OFFSET 2.754700 0.931300 11.300900
						CHANNELS 3 Xrotation Yrotation Zrotation
						End Site
						{
							OFFSET 0.000000 11.669021 0.000000
						}
					}
				}
			}
		}
	}
	JOINT RightUpLeg
	{
		OFFSET -15.569500 -6.655098 0.678600
		CHANNELS 3 Xrotation Yrotation Zrotation
		JOINT RightLeg
		{
			OFFSET -4.081825 -39.591045 13.023800
			CHANNELS 3 Xrotation Yrotation Zrotation
			JOINT RightFoot
			{
				OFFSET 4.081824 -37.707954 -15.979600
				CHANNELS 3 Xrotation Yrotation Zrotation
				JOINT RightToeBase
				{
					OFFSET -5.346400 -15.068900 20.645000
					CHANNELS 3 Xrotation Yrotation Zrotation
					JOINT RightToe_End
					{
						OFFSET -2.754700 0.931300 11.300900
						CHANNELS 3 Xrotation Yrotation Zrotation
						End Site
						{
							OFFSET 0.000000 11.669021 0.000000
						}
					}
				}
			}
		}
	}
}
MOTION
Frames: 4
Frame Time: 0.033333
-4.107590 63.171486 -3.983402 -30.820972 -24.497843 -24.239252 14.589243 12.127198 -5.641651 1.361567 2.848196 0.144724 1.380799 2.822179 0.114131 3.479110 -1.932759 0.218961 8.764235 -20.296749 11.241920 -0.000000 0.000002 -0.000000 -1.714894 9.899178 0.739514 25.814888 24.343610 -19.738820 0.000005 -41.661760 0.000002 13.204666 -15.596040 -11.762224 4.972949 -0.919251 4.455787 7.416828 13.559452 3.778486 -10.276944 -8.025428 12.851092 0.000001 0.000002 -0.000000 0.332626 -2.971052 -1.456184 0.830593 3.008809 -30.858279 0.830582 3.008800 -30.858279 -0.000000 -0.000001 0.000001 -0.686692 0.199391 -14.655421 0.595563 2.575497 -26.036331 0.077074 0.948177 -9.294151 -0.000002 0.000000 0.000000 0.933456 5.741938 -20.414001 0.491133 2.349936 -23.606350 0.332274 1.946686 -19.370483 -0.000000 -0.000001 0.000001 2.244604 16.205452 -22.664082 0.579244 2.541863 -25.670861 0.579235 2.541865 -25.670844 -0.000001 -0.000000 0.000003 0.821066 3.691075 -4.575243 29.787234 -12.015540 12.825474 -0.000009 44.662286 0.000002 26.446680 4.984188 32.606558 3.998976 2.832316 -3.864435 7.802576 -15.416777 -4.481856 -8.389269 2.112095 -14.768607 0.000000 0.000000 0.000000 0.387318 3.131509 0.644093 0.662469 -2.395984 30.906654 0.662439 -2.395986 30.906640 -0.000001 0.000001 -0.000000 -0.709916 0.247542 13.910243 0.475067 -2.051030 26.079672 0.061194 -0.753322 9.288694 -0.000001 0.000003 0.000001 0.807583 -5.199890 19.769371 0.391791 -1.871430 23.646692 0.265335 -1.551053 19.413967 0.000001 0.000001 0.000000 1.997356 -15.634339 22.197618 0.462050 -2.024255 25.713733 0.462062 -2.024236 25.713748 0.000000 0.000003 0.000000 -41.474903 8.872345 -11.555790 35.310319 0.745488 0.431441 42.251116 6.149659 20.842225 -18.999592 -0.000026 -0.000003 -0.000000 0.000000 0.000000 9.120979 -17.804022 -14.838564 83.046740 7.137291 1.027527 -9.997141 -3.358585 20.665238 -60.660303 -0.000013 -0.000003 -0.000000 -0.000001 -0.000000 
-1.671116 69.171776 -4.011795 -30.493745 -35.059856 -26.776969 13.496147 9.981159 -4.804010 1.219928 2.416155 0.439671 1.239829 2.383130 0.414244 3.366398 -0.951767 0.346350 5.869533 -9.619084 9.033570 0.000000 -0.000000 -0.000000 -1.234622 7.217376 -0.006709 31.334890 17.469191 -24.183084 0.000008 -51.029460 0.000015 14.527023 -17.554367 -12.310419 -6.693649 13.412311 -0.664768 6.058688 12.494521 8.773364 -11.420699 -5.843737 14.093132 0.000001 0.000002 0.000000 1.200899 -3.265551 -3.688301 0.707797 2.793347 -28.432792 0.695682 2.770863 -28.182807 -0.000000 0.000000 -0.000002 -0.595528 0.672317 -15.152756 0.624834 2.634539 -26.680671 0.127657 1.217570 -11.970081 0.000002 -0.000000 -0.000002 0.877823 5.516337 -21.810631 0.546314 2.472257 -24.918139 0.373671 2.060620 -20.554974 -0.000001 0.000000 0.000001 1.728996 14.792182 -25.344242 0.557847 2.496882 -25.183905 0.702602 2.783730 -28.325720 -0.000002 -0.000000 -0.000000 0.976130 5.567930 -3.829682 28.253632 -7.013894 20.622846 -0.000001 59.881109 0.000001 25.599733 6.859872 21.497435 -8.573276 -8.735821 -2.239872 5.922928 -16.620688 -6.912520 -9.066287 1.812747 -15.239508 0.000000 0.000001 -0.000001 0.808739 2.616266 3.089938 0.547383 -2.192521 28.032785 0.523078 -2.146285 27.390599 0.000002 -0.000000 0.000001 -0.584820 -0.327904 14.163942 0.456330 -2.012337 25.551183 0.088423 -0.904135 11.170466 -0.000003 -0.000003 0.000002 0.665154 -4.796779 19.960582 0.393192 -1.874629 23.689522 0.272723 -1.571829 19.684897 0.000001 0.000002 -0.000001 1.234380 -13.522348 23.204104 0.443163 -1.984577 25.173704 0.473940 -2.048705 26.047949 -0.000000 0.000000 -0.000001 -38.617080 5.078077 -5.548448 30.824589 4.601822 -0.018831 34.370598 3.561811 16.722214 -11.648906 0.000005 -0.000005 0.000001 -0.000001 -0.000000 1.014390 -16.305653 -17.083761 76.115553 6.077528 1.092374 -9.995845 -0.890236 15.037254 -53.119132 -0.000010 -0.000008 0.000001 0.000001 0.000000 
2.036396 76.603836 -4.743076 -26.804558 -47.034957 -26.256024 11.107048 7.668412 -3.948974 0.946806 1.935656 0.693890 0.965555 1.901331 0.676091 2.967012 0.020656 0.514319 2.318267 0.936074 7.885465 -0.000000 -0.000001 -0.000000 -0.685205 4.230121 -1.217634 37.050563 10.149290 -27.395810 -0.000005 -65.392832 -0.000002 9.860990 -9.922975 -8.752157 -23.579563 26.916956 -2.635686 4.541429 11.391092 14.131410 -12.687386 -3.645107 15.558408 -0.000002 0.000000 -0.000000 2.034841 -3.587185 -6.231653 0.575580 2.534233 -25.588061 0.550571 2.481403 -25.016703 0.000001 0.000000 -0.000002 -0.474966 1.224907 -15.671895 0.650965 2.685831 -27.243466 0.197826 1.510988 -14.915952 -0.000000 -0.000000 -0.000001 0.785353 5.241087 -23.242294 0.604472 2.593655 -26.234036 0.418871 2.177235 -21.777085 0.000000 -0.000000 -0.000000 1.381238 13.029002 -28.214171 0.531942 2.441114 -24.582682 0.841137 3.026387 -31.058636 0.000000 -0.000000 -0.000002 1.174756 8.139532 -2.939342 28.630736 -0.471247 28.200596 0.000005 74.604647 0.000009 28.970176 9.357558 12.505929 -26.697097 -21.722843 -0.191608 1.938083 -18.632807 -12.961922 -10.647594 0.826070 -16.521403 0.000000 -0.000000 0.000000 1.827585 2.838024 8.482820 0.505545 -2.112129 26.918771 0.426997 -1.949796 24.702545 0.000002 -0.000000 -0.000001 -0.522465 -1.134765 17.222078 0.590342 -2.271306 29.135719 0.189397 -1.315969 16.379326 -0.000002 -0.000000 -0.000001 0.529730 -4.354923 23.787394 0.560093 -2.216220 28.363341 0.386297 -1.858853 23.478056 0.000002 0.000001 -0.000001 0.628395 -11.138025 29.250534 0.569961 -2.234378 28.617227 0.697095 -2.452863 31.725498 0.000001 0.000001 0.000001 -37.373573 2.830333 -1.595405 24.629806 5.573991 -0.423857 31.052267 1.765631 7.733465 -6.766558 0.000003 0.000001 0.000000 -0.000000 -0.000000 -5.770346 -16.291352 -16.223786 62.839304 4.200451 1.682834 -15.049275 5.050420 8.676756 -33.630987 -0.000012 -0.000005 0.000000 -0.000001 -0.000000 
4.949131 82.216774 -5.558130 -20.119871 -57.030375 -24.031001 9.362144 6.047425 -2.632568 1.158020 1.588485 0.728271 1.176660 1.549529 0.721237 2.307574 0.852362 0.805191 -1.650259 10.528091 7.531849 -0.000000 -0.000002 0.000000 -0.172741 0.910689 -2.544650 42.194429 1.860428 -29.436206 -0.000217 -80.615200 -0.000213 4.277800 2.529954 -4.363688 -45.051719 36.099667 -1.754595 3.081839 10.168278 19.507592 -13.992171 -1.521382 17.172595 0.000002 0.000001 0.000000 2.761512 -3.983546 -8.807758 0.454006 2.263200 -22.684475 0.419056 2.177703 -21.781789 -0.000000 -0.000000 -0.000001 -0.341703 1.785355 -16.197396 0.676879 2.735491 -27.791084 0.284170 1.804157 -17.901110 -0.000004 0.000001 0.000001 0.673450 4.966367 -24.678438 0.665417 2.713687 -27.550080 0.466755 2.293384 -23.004709 0.000001 -0.000001 -0.000002 1.318442 11.167264 -31.119954 0.505945 2.383514 -23.965145 0.991751 3.263066 -33.803716 0.000001 -0.000001 -0.000002 1.339567 9.736138 -2.015134 29.906229 5.821920 37.888576 0.002402 87.020544 -0.002404 27.723803 7.551270 4.060160 -49.238021 -31.993644 1.077930 -2.869376 -20.017913 -21.033361 -12.687093 -0.501345 -18.294423 -0.000000 0.000000 0.000002 2.774669 3.747878 15.167311 0.503012 -2.107143 26.850227 0.360083 -1.797305 22.656029 0.000000 -0.000000 -0.000000 -0.413031 -2.009774 21.679340 0.836840 -2.665492 34.854589 0.377153 -1.837647 23.194296 -0.000002 -0.000001 -0.000001 0.307654 -3.966977 29.475453 0.862954 -2.702577 35.412198 0.587437 -2.266092 29.062489 -0.000003 0.000002 -0.000001 0.221817 -8.788331 37.837708 0.800583 -2.612718 34.066894 1.100998 -3.009066 40.187047 0.000002 -0.000003 0.000000 -39.530321 1.603375 1.249335 24.188792 4.411926 -0.141627 24.358248 -0.173599 2.114064 -3.199013 -0.000016 0.000011 -0.000000 0.000000 -0.000000 -11.276175 -17.775268 -11.903817 49.695849 4.673882 1.480960 -13.343093 10.195912 5.247946 -15.929719 0.000003 -0.000003 -0.000000 -0.000002 0.000000 
